<svg width="60" height="60" viewBox="0 0 60 60" fill="none" xmlns="http://www.w3.org/2000/svg">
<line x1="48.7002" y1="7.69995" x2="11.3002" y2="7.69995" stroke="#101010" stroke-linecap="round" stroke-dasharray="4 4"/>
<line x1="48.7002" y1="30.5" x2="11.3002" y2="30.5" stroke="#101010" stroke-linecap="round" stroke-dasharray="4 4"/>
<line x1="48.7002" y1="53.3" x2="11.3002" y2="53.3" stroke="#101010" stroke-linecap="round" stroke-dasharray="4 4"/>
<line x1="30.5" y1="11.3" x2="30.5" y2="48.7001" stroke="#101010" stroke-linecap="round" stroke-dasharray="4 4"/>
<line x1="6.5" y1="11.3" x2="6.5" y2="48.7001" stroke="#101010" stroke-linecap="round" stroke-dasharray="4 4"/>
<line x1="53.2998" y1="11.3" x2="53.2998" y2="48.7001" stroke="#101010" stroke-linecap="round" stroke-dasharray="4 4"/>
<path fill-rule="evenodd" clip-rule="evenodd" d="M14.1176 7.05882C14.1176 10.9573 10.9573 14.1176 7.05882 14.1176C3.16034 14.1176 0 10.9573 0 7.05882C0 3.16034 3.16034 0 7.05882 0C10.9573 0 14.1176 3.16034 14.1176 7.05882ZM14.1176 30C14.1176 33.8985 10.9573 37.0589 7.05882 37.0589C3.16034 37.0589 0 33.8985 0 30C0 26.1016 3.16034 22.9412 7.05882 22.9412C10.9573 22.9412 14.1176 26.1016 14.1176 30ZM7.05882 60.0001C10.9573 60.0001 14.1176 56.8397 14.1176 52.9412C14.1176 49.0428 10.9573 45.8824 7.05882 45.8824C3.16034 45.8824 0 49.0428 0 52.9412C0 56.8397 3.16034 60.0001 7.05882 60.0001ZM37.0589 7.05882C37.0589 10.9573 33.8985 14.1176 30 14.1176C26.1016 14.1176 22.9412 10.9573 22.9412 7.05882C22.9412 3.16034 26.1016 0 30 0C33.8985 0 37.0589 3.16034 37.0589 7.05882ZM30 37.0589C33.8985 37.0589 37.0589 33.8985 37.0589 30C37.0589 26.1016 33.8985 22.9412 30 22.9412C26.1016 22.9412 22.9412 26.1016 22.9412 30C22.9412 33.8985 26.1016 37.0589 30 37.0589ZM37.0589 52.9412C37.0589 56.8397 33.8985 60.0001 30 60.0001C26.1016 60.0001 22.9412 56.8397 22.9412 52.9412C22.9412 49.0428 26.1016 45.8824 30 45.8824C33.8985 45.8824 37.0589 49.0428 37.0589 52.9412ZM52.9412 14.1176C56.8397 14.1176 60.0001 10.9573 60.0001 7.05882C60.0001 3.16034 56.8397 0 52.9412 0C49.0428 0 45.8824 3.16034 45.8824 7.05882C45.8824 10.9573 49.0428 14.1176 52.9412 14.1176ZM60.0001 30C60.0001 33.8985 56.8397 37.0589 52.9412 37.0589C49.0428 37.0589 45.8824 33.8985 45.8824 30C45.8824 26.1016 49.0428 22.9412 52.9412 22.9412C56.8397 22.9412 60.0001 26.1016 60.0001 30ZM52.9412 60.0001C56.8397 60.0001 60.0001 56.8397 60.0001 52.9412C60.0001 49.0428 56.8397 45.8824 52.9412 45.8824C49.0428 45.8824 45.8824 49.0428 45.8824 52.9412C45.8824 56.8397 49.0428 60.0001 52.9412 60.0001Z" fill="#EB5529"/>
</svg>
