<svg width="88" height="60" viewBox="0 0 88 60" fill="none" xmlns="http://www.w3.org/2000/svg">
<circle cx="82.909" cy="55.6363" r="4.36364" fill="#EB5529"/>
<line x1="82.744" y1="56.1084" x2="60.9258" y2="48.472" stroke="#EB5529" stroke-dasharray="3 3"/>
<circle cx="82.909" cy="31.6363" r="4.36364" fill="#EB5529"/>
<line x1="82.9092" y1="32.1365" x2="61.091" y2="32.1365" stroke="#EB5529" stroke-dasharray="3 3"/>
<circle cx="82.909" cy="4.36364" r="4.36364" fill="#EB5529"/>
<line x1="83.0744" y1="4.83545" x2="61.2562" y2="12.4718" stroke="#EB5529" stroke-dasharray="3 3"/>
<rect y="2" width="55" height="55" rx="12" fill="#EB5529"/>
<ellipse cx="27.5" cy="33.7969" rx="27.5" ry="19.7656" fill="#101010"/>
<path d="M26.9272 16.3228C26.9272 12.9843 27.8527 7.21778 30.6292 5.39673C33.4056 3.57569 37.416 6.91429 38.9585 8.1283" stroke="black" stroke-width="3" stroke-linecap="round" stroke-linejoin="round"/>
<path d="M44.1873 9.73446C44.1873 11.4808 42.6512 12.9584 40.6769 12.9584C38.7026 12.9584 37.1665 11.4808 37.1665 9.73446C37.1665 7.98816 38.7026 6.5105 40.6769 6.5105C42.6512 6.5105 44.1873 7.98816 44.1873 9.73446Z" fill="#101010" stroke="black"/>
<path d="M0 38C0 26.9543 8.95431 18 20 18H35C46.0457 18 55 26.9543 55 38V45C55 51.6274 49.6274 57 43 57H12C5.37258 57 0 51.6274 0 45V38Z" fill="#101010"/>
<path fill-rule="evenodd" clip-rule="evenodd" d="M13.6538 31.7917C17.4556 31.7917 19.8599 34.6577 19.8599 38.2995C19.8599 41.9412 17.4433 44.7888 13.6538 44.7888C9.8643 44.7888 7.44775 41.9412 7.44775 38.2995C7.44775 34.6577 9.85199 31.7917 13.6538 31.7917ZM13.6538 34.002C11.2311 34.002 9.78119 35.8491 9.78119 38.3118C9.78119 40.7745 11.2311 42.5908 13.6538 42.5908C16.0765 42.5908 17.5265 40.7684 17.5265 38.3118C17.5265 35.8552 16.0765 34.002 13.6538 34.002ZM23.5819 44.4716V35.7536L26.765 44.4716H28.8337L32.0167 35.7536V44.4716H34.1747V32.0934H31.2564L27.8239 41.5533L24.3946 32.0934H21.4763V44.4716H23.5819ZM45.1091 43.0555C44.6504 43.8652 43.5176 44.7887 41.4858 44.7887C38.0196 44.7887 35.7908 42.0304 35.7908 38.3918C35.7908 34.9963 37.7179 31.8132 41.8552 31.8132C44.7859 31.8132 46.9408 33.3863 47.2486 36.2153H44.8967C44.7551 34.8177 43.4283 33.9712 41.7844 33.9712C39.2725 33.9712 38.0904 35.9321 38.0904 38.321C38.0904 40.8637 39.4325 42.6307 41.8368 42.6307C43.5176 42.6307 44.8259 41.7842 45.0383 39.9802H41.4858V37.8407H47.2486V44.4716H45.1091V43.0555Z" fill="white"/>
</svg>
