<svg width="96" height="96" viewBox="0 0 96 96" fill="none" xmlns="http://www.w3.org/2000/svg">
<rect width="96" height="96" rx="12" fill="#EB5529"/>
<ellipse cx="48" cy="55.5" rx="48" ry="34.5" fill="#101010"/>
<path d="M47.0005 25C47.0005 19.1728 48.6159 9.10754 53.462 5.92898C58.3082 2.75044 65.3082 8.57781 68.0005 10.6968" stroke="black" stroke-width="3" stroke-linecap="round" stroke-linejoin="round"/>
<path d="M77.5 13.5C77.5 16.7795 74.6254 19.5 71 19.5C67.3746 19.5 64.5 16.7795 64.5 13.5C64.5 10.2205 67.3746 7.5 71 7.5C74.6254 7.5 77.5 10.2205 77.5 13.5Z" fill="#101010" stroke="black"/>
<path d="M0 53C0 41.9543 8.9543 33 20 33H76C87.0457 33 96 41.9543 96 53V84C96 90.6274 90.6274 96 84 96H12C5.37258 96 0 90.6274 0 84V53Z" fill="#101010"/>
<path fill-rule="evenodd" clip-rule="evenodd" d="M23.8324 52C30.4683 52 34.6648 57.0025 34.6648 63.359C34.6648 69.7155 30.4468 74.6857 23.8324 74.6857C17.218 74.6857 13 69.7155 13 63.359C13 57.0025 17.1965 52 23.8324 52ZM23.8324 55.858C19.6037 55.858 17.0729 59.0819 17.0729 63.3805C17.0729 67.679 19.6037 70.8492 23.8324 70.8492C28.0611 70.8492 30.5919 67.6683 30.5919 63.3805C30.5919 59.0926 28.0611 55.858 23.8324 55.858ZM41.1609 74.1323V58.9154L46.7168 74.1323H50.3276L55.8835 58.9154V74.1323H59.6502V52.5266H54.5564L48.5652 69.0385L42.5795 52.5266H37.4857V74.1323H41.1609ZM78.7358 71.6606C77.9352 73.0738 75.9579 74.6858 72.4116 74.6858C66.3613 74.6858 62.4711 69.8714 62.4711 63.5202C62.4711 57.5936 65.8347 52.0376 73.0563 52.0376C78.1716 52.0376 81.9329 54.7834 82.4702 59.7213H78.3651C78.1179 57.2819 75.8021 55.8043 72.9328 55.8043C68.5482 55.8043 66.4849 59.227 66.4849 63.3966C66.4849 67.8349 68.8276 70.9191 73.0241 70.9191C75.9579 70.9191 78.2415 69.4415 78.6122 66.2928H72.4116V62.5584H82.4702V74.1323H78.7358V71.6606Z" fill="white"/>
</svg>
