<svg width="37" height="37" viewBox="0 0 37 37" fill="none" xmlns="http://www.w3.org/2000/svg">
<rect x="0.5" y="0.5" width="36" height="36" rx="4.5" stroke="#EB5757"/>
<mask id="mask0" mask-type="alpha" maskUnits="userSpaceOnUse" x="0" y="0" width="37" height="37">
<rect width="37" height="37" rx="5" fill="#EB5757"/>
</mask>
<g mask="url(#mask0)">
<path fill-rule="evenodd" clip-rule="evenodd" d="M22.9077 -1.19416C23.5672 -0.692895 23.6956 0.248144 23.1943 0.907706L15.5241 11.0001H26C26.6018 11.0001 27.1453 11.3597 27.3806 11.9135C27.6159 12.4673 27.4975 13.1081 27.0798 13.5413L16.0303 25.0001H26C26.6346 25.0001 27.2005 25.3994 27.4132 25.9972C27.626 26.5951 27.4395 27.2621 26.9476 27.6629L13.4476 38.6629C12.8053 39.1862 11.8605 39.0898 11.3372 38.4476C10.8139 37.8054 10.9103 36.8605 11.5525 36.3372L21.7845 28.0001H12.5C11.8983 28.0001 11.3548 27.6405 11.1195 27.0867C10.8842 26.5329 11.0026 25.892 11.4203 25.4589L22.4698 14.0001H12.5C11.9302 14.0001 11.4095 13.6771 11.1563 13.1666C10.903 12.6561 10.961 12.0462 11.3058 11.5925L20.8058 -0.907544C21.3071 -1.56711 22.2481 -1.69543 22.9077 -1.19416Z" fill="#EB5757"/>
</g>
</svg>
