<svg width="12" height="7" viewBox="0 0 12 7" fill="none" xmlns="http://www.w3.org/2000/svg">
<path d="M0.141335 5.90988L0.601335 5.43388L4.89933 1.13488C5.03864 0.99549 5.20404 0.884915 5.38609 0.809473C5.56814 0.73403 5.76327 0.695199 5.96033 0.695199C6.1574 0.695199 6.35253 0.73403 6.53458 0.809473C6.71663 0.884915 6.88203 0.99549 7.02133 1.13488L11.3133 5.42788L11.7933 5.90088C11.8413 5.94664 11.8797 6.00148 11.9063 6.06222C11.9329 6.12295 11.9471 6.18837 11.9482 6.25466C11.9492 6.32095 11.9371 6.38679 11.9125 6.44835C11.8879 6.50991 11.8513 6.56596 11.8048 6.61324C11.7583 6.66051 11.7029 6.69807 11.6418 6.72373C11.5806 6.74939 11.515 6.76264 11.4487 6.7627C11.3824 6.76275 11.3167 6.74963 11.2556 6.72408C11.1944 6.69853 11.1389 6.66107 11.0923 6.61388L10.6083 6.13788L6.31333 1.84188C6.26689 1.79532 6.21171 1.75837 6.15097 1.73317C6.09022 1.70796 6.0251 1.69499 5.95933 1.69499C5.89357 1.69499 5.82845 1.70796 5.7677 1.73317C5.70696 1.75837 5.65178 1.79532 5.60534 1.84188L1.31333 6.13488L0.860334 6.60488C0.768171 6.70036 0.641855 6.75531 0.509173 6.75766C0.376492 6.76 0.248313 6.70954 0.152835 6.61738C0.0573568 6.52522 0.00240135 6.3989 5.72205e-05 6.26622C-0.00228691 6.13354 0.048172 6.00536 0.140335 5.90988H0.141335Z" fill="#111111"/>
</svg>
