<svg width="81" height="86" viewBox="0 0 81 86" fill="none" xmlns="http://www.w3.org/2000/svg">
<path d="M1 13H29.2979C34.8207 13 39.2979 17.4772 39.2979 23V26M78 73H49.2979C43.775 73 39.2979 68.5228 39.2979 63V60" stroke="black" stroke-linecap="round"/>
<path d="M79 13H49.7021C44.1793 13 39.7021 17.4772 39.7021 23V63C39.7021 68.5228 35.225 73 29.7021 73H3" stroke="#EB5529" stroke-width="3" stroke-linecap="round" stroke-dasharray="6 9"/>
<circle cx="40.129" cy="43.129" r="11.129" fill="#101010"/>
<path d="M36.0561 40.7186C35.8062 40.6181 35.5063 40.7689 35.4064 41.0202C35.3064 41.2715 35.4563 41.5731 35.7562 41.6737L36.8057 42.0255C37.0556 42.0758 37.3555 41.9753 37.4055 41.6737C37.4554 41.3721 37.3555 41.1208 37.1056 41.0705L36.0561 40.7186ZM38.505 38.9091C38.405 38.6075 38.1051 38.4567 37.8553 38.5573C37.6054 38.6578 37.4554 38.9594 37.5554 39.2107L37.9052 40.2663C38.0052 40.5176 38.2551 40.6684 38.5549 40.5678C38.8048 40.5176 38.9048 40.216 38.8548 39.9647L38.505 38.9091ZM44.2024 45.8959C44.4523 45.9964 44.7521 45.8456 44.8521 45.5943C44.952 45.343 44.8021 45.0414 44.5522 44.9409L43.5027 44.589C43.2528 44.4885 42.9529 44.6393 42.853 44.8906C42.753 45.1419 42.903 45.4435 43.1529 45.5441L44.2024 45.8959ZM41.7535 47.7557C41.8534 48.007 42.1033 48.1578 42.4032 48.0573C42.6531 47.9568 42.803 47.7054 42.7031 47.4039L42.3532 46.3483C42.2533 46.097 42.0034 45.9462 41.7035 46.0467C41.4536 46.1472 41.3037 46.3986 41.4036 46.7001L41.7535 47.7557ZM44.7021 42.2266C45.7017 41.2213 45.7017 39.6631 44.7021 38.6578C43.7026 37.6525 42.1533 37.6525 41.1538 38.6578L39.7544 40.1155C39.5545 40.3165 39.5545 40.6181 39.7544 40.8192C39.9543 41.0202 40.2542 41.0202 40.4541 40.8192L41.8534 39.4118C42.4532 38.8086 43.4027 38.8086 43.9525 39.4118C44.5522 40.0149 44.5522 40.97 43.9525 41.5229L42.5531 42.9303C42.3532 43.1313 42.3532 43.4329 42.5531 43.634C42.753 43.8351 43.0529 43.8351 43.2528 43.634L44.7021 42.2266ZM38.355 47.2028C37.7553 47.806 36.8057 47.806 36.256 47.2028C35.6563 46.5996 35.6563 45.6446 36.256 45.0917L37.6553 43.6843C37.8553 43.4832 37.8553 43.1816 37.6553 42.9806C37.4554 42.7795 37.1556 42.7795 36.9557 42.9806L35.5563 44.388C34.5568 45.3933 34.5568 46.9515 35.5563 47.9568C36.5558 48.9621 38.1051 48.9621 39.1047 47.9568L40.5041 46.5494C40.704 46.3483 40.704 46.0467 40.5041 45.8456C40.3041 45.6446 40.0043 45.6446 39.8044 45.8456L38.355 47.2028ZM41.9034 41.5229C42.1033 41.7239 42.1033 42.0255 41.9034 42.2266L39.0547 45.0917C38.8548 45.2927 38.5549 45.2927 38.355 45.0917C38.1551 44.8906 38.1551 44.589 38.355 44.388L41.2037 41.5229C41.4036 41.3218 41.7035 41.3218 41.9034 41.5229Z" fill="white"/>
</svg>
